<svg width="360" height="137" viewBox="0 0 360 137" fill="none" xmlns="http://www.w3.org/2000/svg">
<rect width="100" height="100" rx="12" fill="white"/>
<rect x="228" width="100" height="100" rx="12" fill="white"/>
<rect x="114" width="100" height="100" rx="12" fill="white"/>
<rect x="9" y="5" width="100" height="100" rx="12" fill="#0971BC"/>
<rect x="237" y="5" width="100" height="100" rx="12" fill="#199FFF"/>
<rect x="123" y="5" width="100" height="100" rx="12" fill="#0B8FEE"/>
<path d="M43.0859 25.9912C43.0859 24.7607 43.3203 23.6035 43.7891 22.5195C44.2578 21.4063 44.9023 20.4541 45.7227 19.6631C46.543 18.8428 47.4951 18.1982 48.5791 17.7295C49.6924 17.2314 50.8643 16.9824 52.0947 16.9824H86.2842C87.5146 16.9824 88.6719 17.2314 89.7559 17.7295C90.8691 18.1982 91.8359 18.8428 92.6562 19.6631C93.4766 20.4541 94.1211 21.4063 94.5898 22.5195C95.0586 23.6035 95.293 24.7607 95.293 25.9912V34.1211H86.2842V25.9912H52.0947V70.9912H86.2842V55.6982H69.1895V46.6895H95.293V70.9912C95.293 72.2217 95.0586 73.3936 94.5898 74.5068C94.1211 75.5908 93.4766 76.543 92.6562 77.3633C91.8359 78.1836 90.8691 78.8281 89.7559 79.2969C88.6719 79.7656 87.5146 80 86.2842 80H52.0947C50.8643 80 49.6924 79.7656 48.5791 79.2969C47.4951 78.8281 46.543 78.1836 45.7227 77.3633C44.9023 76.543 44.2578 75.5908 43.7891 74.5068C43.3203 73.3936 43.0859 72.2217 43.0859 70.9912V25.9912Z" fill="white"/>
<path d="M290.605 80L267.095 33.8135V80H258.086V16.9824H267.93L291.924 64.4434L315.962 16.9824H325.762V80H316.797V33.8135L293.286 80H290.605Z" fill="white"/>
<path d="M202.094 80H199.594C194.229 80 190.466 78.4505 188.305 75.3516C186.091 78.4505 182.341 80 177.055 80H165.219C156.13 80 151.586 75.4688 151.586 66.4062V63.5938C151.586 60.1042 152.211 57.3047 153.461 55.1953C154.711 53.0859 156.521 51.6797 158.891 50.9766C156.781 49.987 155.167 48.4766 154.047 46.4453C152.953 44.388 152.406 41.7839 152.406 38.6328V37.6172C152.406 28.5286 156.938 23.9844 166 23.9844H177.836C182.445 23.9844 185.857 25.1042 188.07 27.3438C190.31 29.5833 191.43 33.0078 191.43 37.6172V40.9766H183.617V38.0078C183.617 35.8724 183.148 34.3099 182.211 33.3203C181.273 32.3307 179.737 31.8359 177.602 31.8359H166.234C164.125 31.8359 162.602 32.3307 161.664 33.3203C160.727 34.3099 160.258 35.8724 160.258 38.0078V41.6797C160.258 43.7109 160.674 45.2214 161.508 46.2109C162.367 47.1745 163.76 47.6953 165.688 47.7734H202.094V55.5859H192.25V66.0156C192.25 68.125 192.719 69.6745 193.656 70.6641C194.594 71.6536 196.117 72.1484 198.227 72.1484H202.094V80ZM178.383 72.1484C180.518 72.1484 182.055 71.6536 182.992 70.6641C183.93 69.6745 184.398 68.125 184.398 66.0156V55.5859H165.453C163.318 55.5859 161.781 56.0677 160.844 57.0312C159.906 57.9948 159.438 59.5443 159.438 61.6797V66.0156C159.438 68.125 159.906 69.6745 160.844 70.6641C161.781 71.6536 163.318 72.1484 165.453 72.1484H178.383Z" fill="white"/>
<path d="M25.603 132.497C27.2323 132.497 28.4855 132.058 29.3628 131.181C30.2401 130.303 30.6787 129.05 30.6787 127.421V120.072C30.6787 119.275 30.5648 118.563 30.3369 117.936C30.109 117.309 29.7729 116.78 29.3286 116.347C28.8957 115.902 28.3659 115.566 27.7393 115.338C27.1126 115.111 26.4006 114.997 25.603 114.997H16.6479V132.497H25.603ZM13.1445 136V111.493H25.603C26.9132 111.493 28.0924 111.698 29.1406 112.108C30.2002 112.507 31.1003 113.083 31.8408 113.834C32.5928 114.575 33.1681 115.475 33.5669 116.535C33.9771 117.594 34.1821 118.773 34.1821 120.072V127.421C34.1821 128.72 33.9771 129.899 33.5669 130.958C33.1681 132.018 32.5928 132.924 31.8408 133.676C31.1003 134.416 30.2002 134.992 29.1406 135.402C28.0924 135.801 26.9132 136 25.603 136H13.1445ZM45.0547 111.493H62.9136V114.997H48.5581V122.003H60.8115V125.507H48.5581V132.497H62.9136V136H45.0547V111.493ZM80.7588 136L71.3081 111.493H75.0679L82.6899 131.659L90.3291 111.493H94.0718L84.6211 136H80.7588ZM103.509 111.493H121.368V114.997H107.012V122.003H119.266V125.507H107.012V132.497H121.368V136H103.509V111.493ZM135.368 111.493V132.497H147.963V136H131.864V111.493H135.368ZM178.42 132.497C178.42 132.975 178.329 133.431 178.147 133.864C177.965 134.285 177.714 134.656 177.395 134.975C177.076 135.294 176.7 135.544 176.267 135.727C175.846 135.909 175.396 136 174.917 136H160.92C160.442 136 159.986 135.909 159.553 135.727C159.132 135.544 158.761 135.294 158.442 134.975C158.123 134.656 157.873 134.285 157.69 133.864C157.508 133.431 157.417 132.975 157.417 132.497V114.997C157.417 114.518 157.508 114.068 157.69 113.646C157.873 113.214 158.123 112.843 158.442 112.536C158.761 112.217 159.132 111.966 159.553 111.784C159.986 111.59 160.442 111.493 160.92 111.493H174.917C175.396 111.493 175.846 111.59 176.267 111.784C176.7 111.966 177.076 112.217 177.395 112.536C177.714 112.843 177.965 113.214 178.147 113.646C178.329 114.068 178.42 114.518 178.42 114.997V132.497ZM160.92 114.997V132.497H174.917V114.997H160.92ZM189.977 136V111.493H203.392C207.357 111.493 209.339 113.481 209.339 117.458V120.944C209.339 124.92 207.357 126.908 203.392 126.908H193.48V136H189.977ZM193.48 123.405H203.204C204.138 123.405 204.811 123.2 205.221 122.79C205.631 122.379 205.836 121.707 205.836 120.773V117.628C205.836 116.694 205.631 116.022 205.221 115.612C204.811 115.202 204.138 114.997 203.204 114.997H193.48V123.405ZM232.141 136L222.998 118.039V136H219.494V111.493H223.322L232.653 129.95L242.001 111.493H245.812V136H242.326V118.039L233.183 136H232.141ZM257.386 111.493H275.245V114.997H260.889V122.003H273.143V125.507H260.889V132.497H275.245V136H257.386V111.493ZM289.245 136H285.741V111.493H289.245L303.976 130.497V111.493H307.479V136H303.976L289.245 116.996V136ZM316.917 111.493H336.519V114.997H328.469V136H324.966V114.997H316.917V111.493Z" fill="white"/>
</svg>
