<svg id="visual" viewBox="0 0 960 540" width="960" height="540" xmlns="http://www.w3.org/2000/svg" xmlns:xlink="http://www.w3.org/1999/xlink" version="1.1"><rect x="0" y="0" width="960" height="540" fill="#ffffff"></rect><path d="M0 392L22.8 396.3C45.7 400.7 91.3 409.3 137 404.3C182.7 399.3 228.3 380.7 274 375C319.7 369.3 365.3 376.7 411.2 376.7C457 376.7 503 369.3 548.8 378.3C594.7 387.3 640.3 412.7 686 419C731.7 425.3 777.3 412.7 823 404.7C868.7 396.7 914.3 393.3 937.2 391.7L960 390L960 541L937.2 541C914.3 541 868.7 541 823 541C777.3 541 731.7 541 686 541C640.3 541 594.7 541 548.8 541C503 541 457 541 411.2 541C365.3 541 319.7 541 274 541C228.3 541 182.7 541 137 541C91.3 541 45.7 541 22.8 541L0 541Z" fill="#f68e43" stroke-linecap="round" stroke-linejoin="miter"></path></svg>